<svg width="16" height="16" viewBox="0 0 16 16" fill="none" xmlns="http://www.w3.org/2000/svg">
<path d="M3.42857 16H0V5H3.42857V16ZM16 16H12.5714V10.1238C12.5714 8.5926 12.0046 7.8303 10.8811 7.8303C9.99086 7.8303 9.42629 8.2571 9.14286 9.1118C9.14286 10.5 9.14286 16 9.14286 16H5.71429C5.71429 16 5.76 6.1 5.71429 5H8.42057L8.62971 7.2H8.70057C9.40343 6.1 10.5269 5.3542 12.0674 5.3542C13.2389 5.3542 14.1863 5.6677 14.9097 6.4553C15.6377 7.244 16 8.3022 16 9.7883V16Z" fill="white"/>
<path d="M4 2C4 3.10458 3.10456 4 2 4C0.895444 4 0 3.10458 0 2C0 0.895417 0.895444 0 2 0C3.10456 0 4 0.895417 4 2Z" fill="white"/>
</svg>
